 <svg width="20" height="20" viewBox="0 0 20 20" fill="none" xmlns="http://www.w3.org/2000/svg">
   <path d="M2.5 14.375V17.5H5.625L14.8417 8.28334L11.7167 5.15834L2.5 14.375ZM17.2583 5.86667C17.3356 5.78958 17.3969 5.69801 17.4387 5.59719C17.4805 5.49638 17.502 5.38831 17.502 5.27917C17.502 5.17003 17.4805 5.06196 17.4387 4.96115C17.3969 4.86034 17.3356 4.76877 17.2583 4.69167L15.3083 2.74167C15.2312 2.66442 15.1397 2.60313 15.0389 2.56131C14.938 2.5195 14.83 2.49797 14.7208 2.49797C14.6117 2.49797 14.5036 2.5195 14.4028 2.56131C14.302 2.60313 14.2104 2.66442 14.1333 2.74167L12.6083 4.26667L15.7333 7.39167L17.2583 5.86667Z" fill="white" fillOpacity="0.4" />
 </svg>